<svg xmlns="http://www.w3.org/2000/svg" viewBox="0 0 22 22">
  <defs>
    <style>
      @import '../style.css'
    </style>
  </defs>
  <g class="svg map"> 
    <path d="M5,3A2,2,0,1,1,3,1,2,2,0,0,1,5,3Z" />
    <path d="M13,3a2,2,0,1,1-2-2A2,2,0,0,1,13,3Z" />
    <path d="M21,3a2,2,0,1,1-2-2A2,2,0,0,1,21,3Z" />
    <path d="M21,11a2,2,0,1,1-2-2A2,2,0,0,1,21,11Z" />
    <path d="M21,19a2,2,0,1,1-2-2A2,2,0,0,1,21,19Z" />
    <path d="M13,19a2,2,0,1,1-2-2A2,2,0,0,1,13,19Z" />
    <path d="M5,19a2,2,0,1,1-2-2A2,2,0,0,1,5,19Z" />
    <path d="M5,11A2,2,0,1,1,3,9,2,2,0,0,1,5,11Z" />
    <path d="M13,11a2,2,0,1,1-2-2A2,2,0,0,1,13,11Z" /> 
  </g>
</svg>