<svg xmlns="http://www.w3.org/2000/svg" viewBox="0 0 23 22">
  <defs>
    <style>
      @import '../style.css'
    </style>
  </defs>
  <g class="svg plan"> 
    <path d="M9.37,15.85V4.57A3.42,3.42,0,0,0,6.12,1,3.43,3.43,0,0,0,2.87,4.57V17" />
    <path d="M22,11,19,8l-3,3" />
    <path d="M3,21a2,2,0,1,0-2-2A2,2,0,0,0,3,21Z" />
    <path d="M19,5a2,2,0,1,0-2-2A2,2,0,0,0,19,5Z" />
    <line x1="19" y1="8.61" x2="19" y2="16.09" />
    <path d="M9.4,15.83c0,.08,0,.16,0,.24a4.82,4.82,0,0,0,9.63,0,2,2,0,0,0,0-.24" /> 
  </g>
</svg>