<svg xmlns="http://www.w3.org/2000/svg" viewBox="0 0 20 22">
  <defs>
    <style> 
      @import '../style.css'
    </style>
  </defs>
  <g class="svg directiva"> 
    <path d="M10,4.81A1.91,1.91,0,1,0,8.11,2.9,1.89,1.89,0,0,0,10,4.81Z" />
    <path d="M2.89,19.1A1.91,1.91,0,1,0,1,17.19,1.91,1.91,0,0,0,2.89,19.1Z" />
    <path d="M17.11,19.1a1.91,1.91,0,1,0-1.9-1.91A1.91,1.91,0,0,0,17.11,19.1Z" />
    <path d="M14.57,4.16A9,9,0,0,1,19,12a8.12,8.12,0,0,1,0,.86h0" />
    <path d="M13.51,20.29a9,9,0,0,1-7,0" />
    <path d="M1,12.81A8.12,8.12,0,0,1,1,12,9,9,0,0,1,5.43,4.16" />
    <path d="M12,11a2,2,0,1,1-2-2A2,2,0,0,1,12,11Z" /> 
  </g>
</svg>