<svg xmlns="http://www.w3.org/2000/svg" viewBox="0 0 20 22">
  <defs>
    <style>
      @import '../style.css'
    </style>
  </defs>
  <g class="svg talleres"> 
    <path d="M16.93,9v4" />
    <path d="M11.73,18l1.73-1,1.74-1" />
    <path d="M8.27,18,6.54,17,4.8,16" />
    <path d="M3.07,9v4" />
    <path d="M4.8,6,6.54,5,8.27,4" />
    <path d="M11.73,4l1.73,1L15.2,6" />
    <path d="M10,21a2,2,0,1,0-2-2A2,2,0,0,0,10,21Z" />
    <path d="M10,5A2,2,0,1,0,8,3,2,2,0,0,0,10,5Z" />
    <path d="M10,13a2,2,0,1,0-2-2A2,2,0,0,0,10,13Z" />
    <path d="M17,9a2,2,0,1,0-2-2A2,2,0,0,0,17,9Z" />
    <path d="M17,17a2,2,0,1,0-2-2A2,2,0,0,0,17,17Z" />
    <path d="M3,9A2,2,0,1,0,1,7,2,2,0,0,0,3,9Z" />
    <path d="M3,17a2,2,0,1,0-2-2A2,2,0,0,0,3,17Z" /> 
  </g>
</svg>