<svg xmlns="http://www.w3.org/2000/svg" viewBox="0 0 20 22">
  <defs>
    <style>
      @import '../style.css'
    </style>
  </defs>
  <g class="svg simulacros"> 
    <path class="cls-1" d="M10,11V5m0,6L4.75,14Zm0,0,5.25,3Z" />
    <path class="cls-1" d="M5,7A2,2,0,1,1,3,5,2,2,0,0,1,5,7Z" />
    <path class="cls-1" d="M5,15a2,2,0,1,1-2-2A2,2,0,0,1,5,15Z" />
    <path class="cls-1" d="M12,19a2,2,0,1,1-2-2A2,2,0,0,1,12,19Z" />
    <path class="cls-1" d="M19,15a2,2,0,1,1-2-2A2,2,0,0,1,19,15Z" />
    <path class="cls-1" d="M19,7a2,2,0,1,1-2-2A2,2,0,0,1,19,7Z" />
    <path class="cls-1" d="M12,3a2,2,0,1,1-2-2A2,2,0,0,1,12,3Z" /> 
  </g>
</svg>