<svg xmlns="http://www.w3.org/2000/svg" viewBox="0 0 350.46 49.88">
  <defs>
    <style>
      .cls-1 {
        fill: #fff;
      }
    </style>
  </defs>
  <g id="Capa_2" data-name="Capa 2">
    <g id="Capa_1-2" data-name="Capa 1">
      <polygon class="cls-1" points="106.34 0.29 106.34 9.3 80.62 9.3 80.62 19.73 104.22 19.73 104.22 28.05 80.62 28.05 80.62 39.99 106.88 39.99 106.88 48.99 69.91 48.99 69.91 0.29 106.34 0.29" />
      <path class="cls-1" d="M108,20.21V13.73h5.8V11a10.59,10.59,0,0,1,2.93-7.71c2-2,4.91-3,8.87-3,.86,0,1.73,0,2.59.11s1.71.12,2.52.16V7.79a31,31,0,0,0-3.54-.2,3.73,3.73,0,0,0-2.83.92,4.51,4.51,0,0,0-.86,3.1v2.12h6.69v6.48h-6.69V49h-9.68V20.21Z" />
      <path class="cls-1" d="M143.44,40.53a9.91,9.91,0,0,0,11.32.65,6.08,6.08,0,0,0,2.6-3.1h8.52q-2,6.35-6.27,9.07a18.47,18.47,0,0,1-10.24,2.73,20.08,20.08,0,0,1-7.5-1.33,15.63,15.63,0,0,1-5.66-3.79,16.9,16.9,0,0,1-3.58-5.86,21.56,21.56,0,0,1-1.26-7.51A20.63,20.63,0,0,1,132.66,24,17.09,17.09,0,0,1,142,14.21a18.19,18.19,0,0,1,7.33-1.44,16.77,16.77,0,0,1,7.85,1.74,15.59,15.59,0,0,1,5.49,4.68,19.06,19.06,0,0,1,3.1,6.68,24.85,24.85,0,0,1,.69,7.84H141.05c.14,3.14.94,5.42,2.39,6.82M154.39,22a6.82,6.82,0,0,0-5.29-1.91,8.45,8.45,0,0,0-3.85.79,7.44,7.44,0,0,0-2.46,1.94,7.11,7.11,0,0,0-1.29,2.46,11.34,11.34,0,0,0-.45,2.32h15.76a11.18,11.18,0,0,0-2.42-5.6" />
      <path class="cls-1" d="M187.71,20.07a6.85,6.85,0,0,0-3.89,1.06,8.37,8.37,0,0,0-2.56,2.73,11.91,11.91,0,0,0-1.4,3.68,20.15,20.15,0,0,0-.4,4,19.39,19.39,0,0,0,.4,3.89A12.33,12.33,0,0,0,181.19,39a7.74,7.74,0,0,0,2.49,2.63,6.87,6.87,0,0,0,3.82,1,7.13,7.13,0,0,0,5.36-1.94,9.23,9.23,0,0,0,2.35-5.22h9.35q-1,7-5.46,10.71t-11.53,3.68a19.18,19.18,0,0,1-7.26-1.33,16,16,0,0,1-5.63-3.72,16.81,16.81,0,0,1-3.61-5.69,19.67,19.67,0,0,1-1.3-7.27,23.6,23.6,0,0,1,1.19-7.6,17.1,17.1,0,0,1,3.52-6.07,15.88,15.88,0,0,1,5.66-4,19.1,19.1,0,0,1,7.64-1.43,22.27,22.27,0,0,1,6,.81A16.42,16.42,0,0,1,199,16.08a12.91,12.91,0,0,1,5.35,10.06h-9.48q-1-6.06-7.16-6.07" />
      <path class="cls-1" d="M228,13.73v6.48h-7.09V37.67q0,2.46.81,3.27c.55.55,1.64.82,3.28.82.54,0,1.07,0,1.57-.07a12.63,12.63,0,0,0,1.43-.2V49a23.24,23.24,0,0,1-2.73.28c-1,0-2,.06-2.93.06a29.1,29.1,0,0,1-4.27-.3,9.94,9.94,0,0,1-3.54-1.2,6.25,6.25,0,0,1-2.42-2.52,8.9,8.9,0,0,1-.89-4.3V20.21h-5.87V13.73h5.87V3.16h9.69V13.73Z" />
      <path class="cls-1" d="M231.57.29h9.68v8h-9.68ZM241.25,49h-9.68V13.73h9.68Z" />
      <polygon class="cls-1" points="256.26 48.99 244.18 13.73 254.35 13.73 261.78 37.81 261.92 37.81 269.35 13.73 278.97 13.73 267.03 48.99 256.26 48.99" />
      <path class="cls-1" d="M281.22,24.57a11.2,11.2,0,0,1,1.71-5.66,11.47,11.47,0,0,1,3.82-3.61,16.65,16.65,0,0,1,5.21-2,30.24,30.24,0,0,1,5.83-.57,39.49,39.49,0,0,1,5.39.37,16.41,16.41,0,0,1,5,1.47,9.76,9.76,0,0,1,3.69,3,8.52,8.52,0,0,1,1.43,5.15V41.15a37.31,37.31,0,0,0,.27,4.57,8.05,8.05,0,0,0,1,3.27h-9.83a13.21,13.21,0,0,1-.44-1.67,16.55,16.55,0,0,1-.24-1.74,12.54,12.54,0,0,1-5.45,3.35,22.18,22.18,0,0,1-6.42,1,17.63,17.63,0,0,1-4.7-.61,10.81,10.81,0,0,1-3.82-1.91,8.93,8.93,0,0,1-2.56-3.28,11.1,11.1,0,0,1-.92-4.7,10.25,10.25,0,0,1,1.06-5,8.74,8.74,0,0,1,2.72-3.1,12,12,0,0,1,3.82-1.74,38.52,38.52,0,0,1,4.34-.92c1.45-.23,2.88-.41,4.29-.55a26.72,26.72,0,0,0,3.75-.61,6.55,6.55,0,0,0,2.6-1.2,2.61,2.61,0,0,0,.88-2.28,5.13,5.13,0,0,0-.51-2.49,3.68,3.68,0,0,0-1.36-1.43,5.53,5.53,0,0,0-2-.69,16.71,16.71,0,0,0-2.42-.17,7.33,7.33,0,0,0-4.5,1.23,5.44,5.44,0,0,0-1.91,4.09Zm22.37,7.17a4.51,4.51,0,0,1-1.53.85,17.3,17.3,0,0,1-2,.51c-.71.14-1.44.25-2.22.34s-1.54.21-2.32.34a18.32,18.32,0,0,0-2.15.55,6.47,6.47,0,0,0-1.84.92,4.48,4.48,0,0,0-1.26,1.47,4.69,4.69,0,0,0-.47,2.25,4.53,4.53,0,0,0,.47,2.18,3.66,3.66,0,0,0,1.3,1.4,5.3,5.3,0,0,0,1.91.71,11.92,11.92,0,0,0,2.25.21,8.5,8.5,0,0,0,4.43-1,6.35,6.35,0,0,0,2.32-2.28,7.23,7.23,0,0,0,.92-2.7,19.05,19.05,0,0,0,.17-2.18Z" />
      <path class="cls-1" d="M22,22.27a4,4,0,0,1,5.61,0,3.85,3.85,0,0,1,0,5.51,4,4,0,0,1-5.61,0,3.85,3.85,0,0,1,0-5.51" />
      <path class="cls-1" d="M14.51,14.92a3.45,3.45,0,0,1,4.81,0,3.32,3.32,0,0,1,0,4.73,3.45,3.45,0,0,1-4.81,0,3.3,3.3,0,0,1,0-4.73" />
      <path class="cls-1" d="M10.24,25a3.41,3.41,0,1,1,3.41,3.34A3.37,3.37,0,0,1,10.24,25" />
      <path class="cls-1" d="M14.51,35.13a3.29,3.29,0,0,1,0-4.72,3.43,3.43,0,0,1,4.81,0,3.31,3.31,0,0,1,0,4.72,3.43,3.43,0,0,1-4.81,0" />
      <path class="cls-1" d="M24.8,39.32A3.34,3.34,0,1,1,28.2,36a3.37,3.37,0,0,1-3.4,3.34" />
      <path class="cls-1" d="M35.09,35.13a3.43,3.43,0,0,1-4.81,0,3.29,3.29,0,0,1,0-4.72,3.43,3.43,0,0,1,4.81,0,3.31,3.31,0,0,1,0,4.72" />
      <path class="cls-1" d="M39.35,25A3.4,3.4,0,1,1,36,21.69,3.37,3.37,0,0,1,39.35,25" />
      <path class="cls-1" d="M35.09,14.92a3.32,3.32,0,0,1,0,4.73,3.45,3.45,0,0,1-4.81,0,3.3,3.3,0,0,1,0-4.73,3.45,3.45,0,0,1,4.81,0" />
      <path class="cls-1" d="M24.8,10.74a3.34,3.34,0,1,1-3.4,3.34,3.37,3.37,0,0,1,3.4-3.34" />
      <path class="cls-1" d="M6.73,11.8a3.14,3.14,0,0,1,0-4.52,3.29,3.29,0,0,1,4.6,0,3.16,3.16,0,0,1,0,4.52,3.29,3.29,0,0,1-4.6,0" />
      <path class="cls-1" d="M2.41,22.44a3.19,3.19,0,0,1-2.3-3.91,3.28,3.28,0,0,1,4-2.26,3.2,3.2,0,0,1,2.3,3.92,3.26,3.26,0,0,1-4,2.25" />
      <path class="cls-1" d="M4.1,33.78a3.26,3.26,0,0,1-4-2.26,3.2,3.2,0,0,1,2.3-3.91,3.26,3.26,0,0,1,4,2.26,3.2,3.2,0,0,1-2.3,3.91" />
      <path class="cls-1" d="M11.33,42.77a3.29,3.29,0,0,1-4.6,0,3.14,3.14,0,0,1,0-4.52,3.31,3.31,0,0,1,4.6,0,3.16,3.16,0,0,1,0,4.52" />
      <path class="cls-1" d="M22.17,47a3.28,3.28,0,0,1-4,2.26,3.2,3.2,0,0,1-2.3-3.91,3.26,3.26,0,0,1,4-2.26A3.19,3.19,0,0,1,22.17,47" />
      <path class="cls-1" d="M33.71,45.36a3.18,3.18,0,0,1-2.3,3.91,3.26,3.26,0,0,1-4-2.26,3.17,3.17,0,0,1,2.3-3.91,3.25,3.25,0,0,1,4,2.26" />
      <path class="cls-1" d="M42.87,38.25a3.16,3.16,0,0,1,0,4.52,3.29,3.29,0,0,1-4.6,0,3.14,3.14,0,0,1,0-4.52,3.31,3.31,0,0,1,4.6,0" />
      <path class="cls-1" d="M47.18,27.61a3.18,3.18,0,0,1,2.3,3.91,3.25,3.25,0,0,1-4,2.26,3.18,3.18,0,0,1-2.3-3.91,3.25,3.25,0,0,1,4-2.26" />
      <path class="cls-1" d="M45.5,16.27a3.26,3.26,0,0,1,4,2.26,3.17,3.17,0,0,1-2.3,3.91,3.25,3.25,0,0,1-4-2.25,3.19,3.19,0,0,1,2.3-3.92" />
      <path class="cls-1" d="M38.27,7.28a3.29,3.29,0,0,1,4.6,0,3.16,3.16,0,0,1,0,4.52,3.29,3.29,0,0,1-4.6,0,3.14,3.14,0,0,1,0-4.52" />
      <path class="cls-1" d="M27.43,3a3.25,3.25,0,0,1,4-2.25,3.17,3.17,0,0,1,2.3,3.91,3.26,3.26,0,0,1-4,2.26A3.19,3.19,0,0,1,27.43,3" />
      <path class="cls-1" d="M15.88,4.7A3.2,3.2,0,0,1,18.18.78a3.27,3.27,0,0,1,4,2.27A3.2,3.2,0,0,1,19.87,7a3.28,3.28,0,0,1-4-2.26" />
      <path class="cls-1" d="M323.87,11.41a4,4,0,0,1-1.62.34,5.75,5.75,0,0,1-2.32-.45,5,5,0,0,1-1.74-1.23,5.5,5.5,0,0,1-1.08-1.85,6.83,6.83,0,0,1-.38-2.29,7.09,7.09,0,0,1,.38-2.34,5.74,5.74,0,0,1,1.08-1.88A5,5,0,0,1,319.93.46a5.85,5.85,0,0,1,4-.2,4.72,4.72,0,0,1,1.46.76,4.07,4.07,0,0,1,1.08,1.25A4.19,4.19,0,0,1,327,4h-2.36a2.38,2.38,0,0,0-.85-1.41,2.44,2.44,0,0,0-1.53-.47,2.83,2.83,0,0,0-1.41.32,2.62,2.62,0,0,0-.95.86,3.92,3.92,0,0,0-.52,1.24,6.15,6.15,0,0,0-.17,1.43,5.79,5.79,0,0,0,.17,1.38,3.7,3.7,0,0,0,.52,1.2,2.72,2.72,0,0,0,.95.86,2.94,2.94,0,0,0,1.41.32,2.72,2.72,0,0,0,1.9-.62,2.74,2.74,0,0,0,.78-1.8h-2.49V5.43h4.72V11.5h-1.57l-.25-1.27A3.67,3.67,0,0,1,323.87,11.41Z" />
      <path class="cls-1" d="M335.22.27a3.7,3.7,0,0,1,1.36.24,3.21,3.21,0,0,1,1,.67,3.13,3.13,0,0,1,.66,1,3.25,3.25,0,0,1,.22,1.21,3.33,3.33,0,0,1-.41,1.71,2.62,2.62,0,0,1-1.36,1.1v0a2.05,2.05,0,0,1,.75.39,2.23,2.23,0,0,1,.49.61,2.58,2.58,0,0,1,.27.78,6.43,6.43,0,0,1,.12.85q0,.27,0,.63c0,.24,0,.49.06.74a5.4,5.4,0,0,0,.13.72,1.65,1.65,0,0,0,.25.57h-2.47a4.54,4.54,0,0,1-.25-1.27c0-.5-.08-1-.14-1.42a2.21,2.21,0,0,0-.53-1.29,1.87,1.87,0,0,0-1.34-.41h-2.47V11.5h-2.47V.27Zm-.88,5.08A1.87,1.87,0,0,0,335.61,5,1.57,1.57,0,0,0,336,3.75a1.5,1.5,0,0,0-.42-1.19,1.87,1.87,0,0,0-1.27-.37h-2.71V5.35Z" />
      <path class="cls-1" d="M345.36.27a5.85,5.85,0,0,1,2,.34,4.46,4.46,0,0,1,1.62,1,4.93,4.93,0,0,1,1.07,1.73,7.23,7.23,0,0,1,.38,2.44,7.84,7.84,0,0,1-.31,2.27,4.9,4.9,0,0,1-1,1.79,4.49,4.49,0,0,1-1.58,1.19,5.41,5.41,0,0,1-2.25.43h-4.84V.27Zm-.17,9.15a3.07,3.07,0,0,0,1-.17,2.33,2.33,0,0,0,.9-.57,3,3,0,0,0,.63-1A4.77,4.77,0,0,0,348,6.06a6.62,6.62,0,0,0-.16-1.54,3.17,3.17,0,0,0-.55-1.17,2.47,2.47,0,0,0-1-.75,4,4,0,0,0-1.53-.26H343V9.42Z" />
    </g>
  </g>
</svg>