<svg version="1.2" xmlns="http://www.w3.org/2000/svg" viewBox="0 0 1536 1536" width="49" height="47">
  <style>
    @import '../style.css'
  </style>
  <g class="svg submit">
    <path fill-rule="evenodd" d="m637.5 799.3l-57 189.4c-21.6 71.7-32.4 107.5-23.2 129 7.9 18.5 24.2 32.3 43.9 37 22.7 5.4 56.2-11.4 123.1-44.9l500.5-250.2c59-29.5 88.5-44.2 97.9-64.2 8.3-17.3 8.3-37.5 0-54.8-9.4-20-38.9-34.7-97.9-64.2l-501.2-250.6c-66.7-33.4-100.1-50.1-122.8-44.7-19.6 4.7-35.9 18.4-43.9 36.9-9.2 21.4 1.5 57.2 22.8 128.7l57.9 193.8c3.3 10.9 4.9 16.4 5.6 22 0.5 4.9 0.5 9.9-0.1 14.9-0.6 5.5-2.3 11-5.6 21.9zm-445.5-287.3h160m-96 256h96m-64 256h64m976.9-256h-685.3" />
  </g>
</svg>